# xmcd
#
# Track frame offsets:
#	150
#	8494
#	21582
#	34004
#	47227
#	60013
#	71269
#	81430
#	91793
#	102126
#	117136
#	127710
#	140451
#	151843
#	162498
#	171751
#	182753
#	194078
#	205184
#
# Disc length: 2926 seconds
#
# Revision: 0
# Processed by: cddbd v1.4PL0 Copyright (c) Steve Scherf et al.
# Submitted via: dBpowerAMP V4.0
#
DISCID=ef0b6c13
DTITLE=Gene Pitney  - The Great Gene Pitney
DYEAR=1900
DGENRE=Pop
TTITLE0=Love My Life Away
TTITLE1=Town Without Pity
TTITLE2=Every Breath I Take
TTITLE3=Liberty Valance
TTITLE4=Only Love can Break a Heart
TTITLE5=If I didn't Have a Dime
TTITLE6=I laughed so hard I cried
TTITLE7=Louisiana Mama
TTITLE8=Teardrop by Teardrop
TTITLE9=Tower Tall
TTITLE10=Donna Means Heartbreak
TTITLE11=That Girl Belongs to Yesterday
TTITLE12=Yesterday's Hero
TTITLE13=Nobody Needs Your Love More Than I Do
TTITLE14=Hawaii
TTITLE15=Aladdin's Lamp
TTITLE16=Baby Ain't That Fine
TTITLE17=Everybody Know but You and Me
TTITLE18=It's Not That I Don't Love You
EXTD=Gene Pitney disc 1 of 3 disc set "The Great Gene Pitney"
EXTT0=
EXTT1=
EXTT2=
EXTT3=
EXTT4=
EXTT5=
EXTT6=
EXTT7=
EXTT8=
EXTT9=
EXTT10=
EXTT11=
EXTT12=
EXTT13=
EXTT14=
EXTT15=
EXTT16=
EXTT17=
EXTT18=
PLAYORDER=
